# xmcd
#
# Track frame offsets: 
#        150
#        16837
#        34713
#        49625
#        63446
#        76398
#        95444
#        115620
#        131417
#        152132
#        170344
#        185161
#
# Disc length: 2805 seconds
#
# Revision: 1
# Processed by: cddbd v1.5.2PL0 Copyright (c) Steve Scherf et al.
# Submitted via: ExactAudioCopyFreeDBPlugin 1.0
#
DISCID=900af30c
DTITLE=Billy Walton Band - Wish For What You Want
DYEAR=2015
DGENRE=Blues
TTITLE0=Wish For What You Want
TTITLE1=True Lovin Man
TTITLE2=Mountain
TTITLE3=Come On Up
TTITLE4=Blues Comes A Knockin
TTITLE5=Forgive And Forget
TTITLE6=Change
TTITLE7=Worried Blues
TTITLE8=Till Tomorrow
TTITLE9=Walk That Little Girl Home
TTITLE10=It Don't Matter
TTITLE11=Hudson County Star
EXTD=
EXTT0=
EXTT1=
EXTT2=
EXTT3=
EXTT4=
EXTT5=
EXTT6=
EXTT7=
EXTT8=
EXTT9=
EXTT10=
EXTT11=
PLAYORDER=
